<?xml version="1.0" standalone="no"?>
<!DOCTYPE svg PUBLIC "-//W3C//DTD SVG 20010904//EN"
 "http://www.w3.org/TR/2001/REC-SVG-20010904/DTD/svg10.dtd">
<svg version="1.0" xmlns="http://www.w3.org/2000/svg"
 width="1450.000000pt" height="1450.000000pt" viewBox="0 0 1450.000000 1450.000000"
 preserveAspectRatio="xMidYMid meet">
<metadata>
Created by potrace 1.11, written by Peter Selinger 2001-2013
</metadata>
<g transform="translate(0.000000,1450.000000) scale(0.100000,-0.100000)"
fill="#000000" stroke="none">
<path d="M7378 14325 c-2 -2 -41 -6 -88 -9 -106 -9 -177 -18 -230 -31 -3 -1
-25 -5 -50 -9 -187 -33 -460 -132 -688 -251 -266 -139 -510 -322 -752 -565
-213 -212 -335 -359 -460 -550 -34 -52 -63 -96 -64 -98 -2 -1 -32 15 -67 36
-62 38 -212 102 -274 117 -101 24 -190 41 -272 52 -105 14 -497 6 -563 -12 -8
-2 -37 -6 -64 -10 -27 -3 -52 -8 -56 -10 -3 -2 -24 -6 -46 -9 -84 -10 -333
-84 -479 -142 -110 -43 -340 -163 -450 -235 -232 -151 -441 -346 -606 -564
-275 -364 -440 -825 -476 -1330 -9 -126 -9 -334 0 -445 51 -653 345 -1159 872
-1502 96 -62 330 -188 350 -188 2 0 30 -12 61 -26 31 -14 121 -47 201 -74 80
-27 148 -51 151 -55 4 -4 7 -201 8 -438 0 -238 4 -472 8 -522 3 -49 9 -124 12
-165 2 -41 7 -93 9 -115 3 -22 7 -71 10 -110 3 -38 7 -83 10 -100 2 -16 7 -50
10 -75 3 -25 7 -56 9 -70 3 -14 10 -60 16 -103 15 -99 16 -107 45 -252 42
-204 28 -183 156 -234 103 -41 114 -43 177 -37 275 26 477 95 787 271 48 27
250 160 443 292 282 192 516 294 757 328 60 8 244 8 300 0 264 -40 398 -83
670 -216 170 -83 239 -121 374 -204 l83 -53 62 25 c33 13 70 28 81 32 11 5 59
25 107 45 102 42 180 78 373 171 336 162 456 208 595 226 73 10 236 8 280 -4
8 -2 33 -7 55 -12 208 -40 554 -209 940 -459 262 -170 563 -336 608 -336 9 0
19 -5 22 -11 4 -6 14 -8 22 -5 8 3 12 2 9 -2 -5 -9 174 -70 297 -102 194 -49
506 -67 547 -31 22 19 120 265 150 376 5 17 18 62 30 100 21 70 67 243 74 280
2 11 11 51 20 89 9 39 19 84 21 100 2 17 7 42 9 56 8 38 34 200 40 240 2 19 7
58 11 85 3 28 8 64 10 81 3 18 7 63 10 100 3 38 7 83 10 99 5 46 16 245 20
384 2 68 7 127 12 130 4 4 69 27 143 50 74 24 154 52 177 62 23 10 45 19 48
19 4 0 54 22 112 50 565 268 931 699 1078 1270 53 203 68 341 69 615 1 259 -4
346 -30 493 -8 48 -17 101 -20 117 -7 42 -54 226 -64 250 -4 11 -22 61 -40
110 -39 109 -154 345 -213 436 -168 260 -390 490 -653 677 -40 28 -85 58 -100
67 -16 9 -47 27 -69 40 -290 171 -671 304 -975 342 -25 3 -65 9 -90 13 -51 10
-454 5 -515 -5 -40 -7 -161 -33 -180 -39 -5 -1 -30 -8 -55 -15 -25 -7 -92 -35
-149 -62 -57 -28 -104 -49 -105 -47 -2 2 -27 44 -57 93 -29 50 -56 92 -60 95
-3 3 -12 16 -19 29 -7 14 -17 30 -21 35 -5 6 -46 61 -91 121 -45 61 -84 112
-87 115 -3 3 -28 32 -56 65 -110 133 -282 304 -416 415 -89 75 -139 113 -158
124 -9 5 -18 12 -21 16 -8 10 -116 81 -200 132 -145 86 -210 119 -435 213
-147 62 -440 131 -645 151 -62 6 -347 13 -352 9z"/>
<path d="M8527 7054 c-1 -1 -29 -4 -62 -7 -149 -14 -267 -55 -535 -184 -267
-130 -430 -203 -574 -260 -155 -61 -144 -61 -240 1 -80 53 -271 158 -380 210
-529 253 -942 278 -1361 80 -118 -56 -256 -141 -555 -346 -352 -240 -585 -346
-885 -404 -96 -19 -426 -26 -535 -12 -178 23 -325 57 -525 120 -122 38 -362
131 -426 164 -16 8 -29 11 -29 7 0 -36 99 -300 164 -436 161 -341 418 -609
686 -717 30 -12 64 -26 75 -30 41 -17 122 -40 175 -50 30 -6 66 -12 80 -15
175 -34 594 -19 845 31 11 3 36 7 55 10 19 2 46 7 60 10 14 2 39 7 55 10 17 3
98 18 180 35 208 41 208 41 230 45 11 1 31 5 45 9 23 5 130 24 175 30 11 2 34
6 50 9 166 29 301 40 480 41 143 0 298 -9 314 -19 3 -2 24 -7 46 -10 137 -22
261 -68 528 -195 241 -114 352 -144 547 -145 333 -2 571 62 714 191 99 90 206
137 341 150 131 12 453 6 575 -12 14 -2 59 -6 100 -10 41 -4 86 -8 100 -10 14
-2 50 -7 80 -10 30 -3 66 -8 80 -10 14 -2 63 -9 110 -15 47 -6 96 -13 110 -15
39 -5 113 -17 130 -20 8 -2 38 -6 65 -9 28 -4 129 -20 225 -36 96 -16 195 -31
220 -35 25 -3 70 -10 100 -15 95 -16 191 -23 330 -24 808 -7 1401 426 1569
1146 11 46 23 106 27 134 6 48 6 49 -12 28 -56 -63 -229 -185 -349 -246 -96
-49 -258 -107 -341 -122 -206 -38 -402 -40 -607 -6 -102 16 -288 70 -407 117
-201 79 -352 159 -580 308 -309 201 -569 345 -805 446 -53 22 -188 61 -260 74
-71 12 -192 24 -198 19z"/>
<path d="M14235 4769 c-247 -22 -517 -91 -707 -182 -446 -215 -763 -626 -903
-1171 -18 -72 -39 -168 -46 -213 l-13 -83 -238 0 -238 0 -5 -22 c-6 -28 -35
-277 -35 -301 0 -16 20 -17 233 -17 l233 0 -133 -957 c-115 -823 -137 -964
-158 -1011 -35 -77 -141 -183 -215 -216 -68 -31 -175 -56 -237 -56 -36 0 -43
-4 -48 -22 -8 -35 -45 -276 -45 -293 0 -13 96 -15 838 -15 l839 0 12 138 c7
75 14 149 17 163 5 26 4 26 -74 32 -149 12 -247 69 -307 179 -53 96 -51 113
98 1138 l133 915 240 3 241 2 17 143 c9 78 19 154 22 170 l6 27 -241 0 c-186
0 -241 3 -241 13 0 40 66 318 110 467 92 309 171 453 330 610 171 169 361 240
641 240 74 0 99 3 99 13 0 15 28 239 35 285 l6 32 -83 -1 c-46 -1 -128 -6
-183 -10z"/>
<path d="M5130 4474 c-327 -47 -595 -86 -596 -87 -1 -1 -12 -72 -26 -158 l-24
-157 135 -5 c153 -5 223 -23 269 -65 62 -58 72 39 -162 -1638 -193 -1383 -216
-1535 -239 -1579 -65 -128 -233 -224 -421 -241 l-73 -7 -12 -81 c-6 -44 -17
-118 -25 -164 l-13 -82 841 2 841 3 12 120 c6 66 12 138 12 160 l1 41 -82 11
c-192 26 -316 113 -339 237 -10 54 109 869 152 1046 77 312 234 606 428 801
160 160 303 215 493 191 203 -25 324 -128 373 -317 31 -122 22 -226 -85 -984
-55 -388 -106 -719 -112 -736 -19 -48 -96 -123 -166 -162 -81 -46 -162 -70
-255 -79 l-74 -7 -12 -81 c-6 -44 -17 -118 -25 -164 l-13 -82 836 2 836 3 17
130 c9 72 17 144 17 160 l1 31 -82 11 c-191 26 -316 113 -339 237 -5 30 13
183 71 591 90 631 96 698 81 852 -50 501 -322 819 -780 910 -123 25 -405 24
-521 0 -165 -36 -339 -115 -475 -217 -43 -32 -81 -58 -82 -56 -2 2 51 375 117
831 66 455 120 836 120 846 0 10 -6 19 -12 18 -7 0 -281 -39 -608 -85z"/>
<path d="M10240 4358 c-122 -12 -208 -56 -293 -147 -97 -105 -143 -239 -134
-391 6 -104 18 -145 60 -206 67 -97 171 -144 318 -144 254 0 439 161 485 423
26 145 -2 267 -82 356 -79 88 -200 126 -354 109z m181 -202 c21 -15 46 -44 59
-71 19 -40 22 -58 18 -130 -4 -68 -10 -95 -36 -148 -37 -74 -73 -109 -150
-145 -74 -33 -170 -29 -230 11 -99 65 -118 215 -47 357 26 51 100 125 143 141
81 32 181 26 243 -15z"/>
<path d="M6105 4338 c-6 -20 -145 -823 -145 -842 0 -14 13 -16 90 -16 50 0 90
3 90 8 0 4 14 84 30 177 16 94 30 171 30 173 0 1 65 2 144 2 161 0 150 -6 161
83 l7 57 -141 0 c-106 0 -141 3 -141 13 0 6 8 58 17 115 l17 102 182 0 182 0
11 63 c6 35 11 67 11 70 0 4 -122 7 -270 7 -208 0 -272 -3 -275 -12z"/>
<path d="M6755 4328 c-8 -36 -145 -824 -145 -837 0 -7 31 -11 89 -11 l89 0 6
28 c8 36 146 829 146 836 0 4 -40 6 -90 6 -85 0 -90 -1 -95 -22z"/>
<path d="M7086 4338 c-6 -18 -146 -830 -146 -845 0 -10 25 -13 89 -13 l89 0
15 83 c8 45 30 168 48 272 18 105 35 193 38 197 4 4 66 -119 140 -272 l134
-280 93 0 c52 0 94 4 94 8 0 10 138 808 145 840 5 22 4 22 -87 22 l-93 0 -50
-290 -50 -290 -136 288 -135 287 -92 3 c-69 2 -93 -1 -96 -10z"/>
<path d="M7900 3918 l-76 -433 201 -3 c226 -3 275 4 373 54 186 92 305 325
273 532 -19 123 -73 196 -186 249 -59 28 -63 28 -285 31 l-225 4 -75 -434z
m487 244 c24 -13 55 -41 70 -64 25 -37 28 -51 28 -122 -1 -99 -34 -181 -98
-244 -64 -63 -123 -85 -244 -90 -94 -4 -103 -3 -103 13 0 10 20 132 45 272 25
139 45 256 45 259 0 3 48 4 108 2 86 -3 115 -8 149 -26z"/>
<path d="M9070 4342 c0 -4 43 -131 95 -282 l96 -275 -20 -120 c-11 -66 -23
-135 -27 -153 l-7 -33 94 3 94 3 25 147 25 146 127 184 c69 101 158 229 198
286 l71 102 -106 0 -105 0 -118 -180 c-64 -99 -119 -180 -122 -180 -3 0 -29
81 -59 180 l-54 180 -104 0 c-56 0 -103 -4 -103 -8z"/>
<path d="M10866 4323 c-3 -16 -25 -131 -48 -258 -50 -280 -55 -385 -20 -458
46 -92 131 -137 263 -137 185 0 323 92 389 260 11 29 41 170 65 314 25 143 48
271 50 284 6 23 5 23 -87 20 l-92 -3 -47 -267 c-51 -294 -57 -315 -95 -366
-68 -88 -226 -96 -268 -13 -24 46 -20 104 29 381 25 140 45 258 45 263 0 4
-40 7 -89 7 l-89 0 -6 -27z"/>
<path d="M11705 4328 c-7 -34 -145 -828 -145 -839 0 -5 40 -9 89 -9 l90 0 10
53 c6 28 18 95 26 147 22 132 21 130 59 130 l33 0 69 -165 69 -165 102 0 102
0 -18 43 c-10 23 -44 98 -75 166 -31 69 -53 128 -49 131 5 4 29 14 54 24 63
23 124 78 157 140 23 44 27 63 27 142 0 82 -3 94 -27 131 -17 26 -45 49 -75
64 -45 23 -60 24 -270 27 l-222 3 -6 -23z m347 -138 c21 -6 44 -21 53 -33 21
-30 19 -105 -5 -144 -30 -50 -72 -66 -184 -71 l-99 -4 6 23 c3 13 13 67 22
119 9 52 18 101 20 108 5 15 133 17 187 2z"/>
<path d="M2137 4300 c-419 -44 -827 -218 -1187 -506 -271 -217 -552 -559 -695
-844 -250 -498 -310 -1149 -150 -1626 66 -198 155 -356 303 -540 338 -420 785
-624 1368 -624 326 0 636 76 971 239 l163 80 14 -49 c8 -26 17 -72 21 -102 4
-30 10 -60 15 -67 5 -9 49 8 159 63 83 42 151 79 151 83 0 10 109 811 115 851
l6 32 -43 0 c-65 0 -176 -27 -236 -56 -43 -21 -85 -61 -221 -212 -181 -200
-268 -275 -441 -377 -157 -92 -361 -145 -566 -145 -477 0 -792 340 -913 987
-82 434 -39 968 115 1443 49 150 208 466 284 565 179 233 384 382 605 440 548
142 1010 -158 1285 -836 36 -88 85 -142 145 -158 44 -12 225 -15 225 -4 0 11
139 1063 145 1100 6 31 5 31 -132 107 -75 42 -140 73 -143 69 -10 -11 -80
-221 -80 -239 0 -17 -57 10 -247 118 -137 77 -200 107 -241 113 -15 3 -59 16
-97 29 -168 59 -479 88 -698 66z"/>
<path d="M9839 3145 c-351 -48 -676 -218 -947 -493 -271 -277 -425 -575 -488
-947 -24 -140 -25 -419 -1 -538 50 -248 174 -481 349 -654 181 -180 356 -275
608 -329 120 -26 411 -26 530 -1 326 70 666 259 978 543 l82 76 -30 36 c-16
21 -65 75 -109 122 l-79 85 -71 -68 c-239 -225 -443 -361 -651 -435 -365 -128
-574 -21 -699 358 -51 154 -62 223 -68 416 l-6 182 59 6 c33 4 475 42 984 86
509 44 949 82 979 86 l54 6 -6 171 c-6 198 -23 303 -73 460 -132 411 -431 704
-818 802 -177 45 -387 56 -577 30z m297 -354 c188 -88 287 -320 310 -728 l7
-121 -44 -6 c-66 -9 -1133 -106 -1135 -103 -4 4 44 279 60 348 15 67 94 259
138 336 72 127 186 232 296 273 86 33 129 40 221 35 66 -3 97 -10 147 -34z"/>
</g>
</svg>
